<svg width="128" height="128" viewBox="0 0 128 128" fill="none" xmlns="http://www.w3.org/2000/svg">
<g clip-path="url(#clip0_204_42)">
<rect width="128" height="128" rx="64" fill="white"/>
<g filter="url(#filter0_d_204_42)">
<path d="M117.526 59.2747C107.299 64.7872 116.533 56.5185 103.923 63.1138C91.3126 69.709 102.83 59.5701 94.8871 64.0981C94.8871 64.0981 102.235 58.5857 99.951 57.995C99.951 57.995 102.235 53.4669 97.0715 56.9122C97.0715 56.9122 96.8729 54.7466 94.0928 56.5184C94.0928 56.5184 90.8669 58.125 92.2062 56.8138C92.2062 56.8138 97.568 51.3013 97.0715 53.6637C96.5751 56.0263 110.079 39.3903 107.199 49.8247C104.32 60.259 128.349 34.3701 116.434 47.5606C104.519 60.7512 123.384 48.0528 115.838 54.4512C108.292 60.8497 127.753 53.7622 117.526 59.2747ZM109.831 46.8716C110.351 46.8716 110.774 46.4529 110.774 45.9364C110.774 45.42 110.352 45.0012 109.831 45.0012C109.31 45.0012 108.887 45.4199 108.887 45.9364C108.887 46.4529 109.31 46.8716 109.831 46.8716ZM110.774 44.1157C110.774 44.3329 110.952 44.5091 111.171 44.5091C111.39 44.5091 111.568 44.333 111.568 44.1157C111.568 43.8983 111.39 43.7222 111.171 43.7222C110.952 43.7222 110.774 43.8983 110.774 44.1157ZM112.596 42.8356C112.944 42.8356 113.226 42.5558 113.226 42.2107C113.226 41.8656 112.944 41.5857 112.596 41.5857C112.248 41.5857 111.965 41.8656 111.965 42.2107C111.965 42.5558 112.248 42.8356 112.596 42.8356ZM115.242 42.9982C115.461 42.9982 115.639 42.8219 115.639 42.6044C115.639 42.3869 115.461 42.2106 115.242 42.2106C115.023 42.2106 114.845 42.3869 114.845 42.6044C114.845 42.8219 115.023 42.9982 115.242 42.9982ZM115.316 45.9365C115.577 45.9365 115.788 45.7271 115.788 45.4689C115.788 45.2107 115.577 45.0014 115.316 45.0014C115.056 45.0014 114.845 45.2107 114.845 45.4689C114.845 45.7271 115.056 45.9365 115.316 45.9365ZM106.225 41.5881C106.225 41.932 106.506 42.2107 106.853 42.2107C107.2 42.2107 107.481 41.9319 107.481 41.5881C107.481 41.2441 107.2 40.9654 106.853 40.9654C106.506 40.9654 106.225 41.2441 106.225 41.5881ZM109.831 38.6767C109.831 38.4184 109.619 38.2091 109.359 38.2091C109.099 38.2091 108.887 38.4185 108.887 38.6767C108.887 38.9349 109.099 39.1442 109.359 39.1442C109.619 39.1442 109.831 38.9349 109.831 38.6767ZM101.341 46.404C101.341 46.6623 101.552 46.8716 101.813 46.8716C102.073 46.8716 102.284 46.6622 102.284 46.404C102.284 46.1458 102.073 45.9365 101.813 45.9365C101.552 45.9365 101.341 46.1458 101.341 46.404ZM120.14 54.5692C119.902 54.5692 119.71 54.7598 119.71 54.9949C119.71 55.23 119.902 55.4206 120.14 55.4206C120.377 55.4206 120.569 55.23 120.569 54.9949C120.569 54.7598 120.377 54.5692 120.14 54.5692ZM120.537 51.8919C120.317 51.8919 120.14 52.0682 120.14 52.2857C120.14 52.5032 120.317 52.6794 120.537 52.6794C120.756 52.6794 120.934 52.5032 120.934 52.2857C120.934 52.0682 120.756 51.8919 120.537 51.8919ZM121.315 48.6435C120.885 48.6435 120.537 48.9889 120.537 49.4151C120.537 49.8412 120.885 50.1866 121.315 50.1866C121.745 50.1866 122.093 49.8412 122.093 49.4151C122.093 48.9889 121.745 48.6435 121.315 48.6435ZM122.211 37.8153C121.716 37.8153 121.315 38.2132 121.315 38.704C121.315 39.1948 121.716 39.5926 122.211 39.5926C122.706 39.5926 123.108 39.1948 123.108 38.704C123.108 38.2132 122.706 37.8153 122.211 37.8153ZM119.345 42.2107C119.692 42.2107 119.973 41.9319 119.973 41.5881C119.973 41.2441 119.692 40.9654 119.345 40.9654C118.999 40.9654 118.717 41.2442 118.717 41.5881C118.717 41.9319 118.998 42.2107 119.345 42.2107ZM91.114 55.5106C91.114 55.7954 91.3469 56.0263 91.6342 56.0263C91.9215 56.0263 92.1543 55.7954 92.1543 55.5106C92.1543 55.2258 91.9215 54.9949 91.6342 54.9949C91.3469 54.9949 91.114 55.2258 91.114 55.5106ZM92.1543 52.9636C92.1543 53.3381 92.4604 53.6416 92.8381 53.6416C93.2158 53.6416 93.522 53.3381 93.522 52.9636C93.522 52.5892 93.2158 52.2857 92.8381 52.2857C92.4604 52.2857 92.1543 52.5892 92.1543 52.9636ZM94.1921 49.9072C94.1921 50.179 94.4143 50.3994 94.6885 50.3994C94.9627 50.3994 95.1849 50.1791 95.1849 49.9072C95.1849 49.6354 94.9627 49.4151 94.6885 49.4151C94.4143 49.4151 94.1921 49.6353 94.1921 49.9072ZM92.4089 64.1505C84.4338 70.0375 84.5244 68.9143 84.5244 68.9143C83.6181 67.7913 84.7079 65.4163 84.7079 65.4163L83.7541 64.6017C83.1196 64.6017 83.0291 63.7032 83.0291 63.7032L82.7572 63.254C82.3494 63.3439 82.1681 62.5353 82.1681 62.5353L81.715 61.8165C81.126 61.8165 81.3072 61.0978 81.3072 61.0978L80.8087 60.4239C80.4916 60.4239 80.3103 61.3224 80.3103 61.3224L79.9477 60.963C79.9477 60.3341 80.3103 59.84 80.3103 59.84L79.4946 59.0314L78.5883 60.1544L77.9993 59.795C78.0446 58.7617 78.9509 58.043 78.9509 58.043C77.7727 56.9648 75.2805 52.742 75.2805 52.742C74.5555 53.6405 67.0787 54.995 67.0787 54.995C63.5896 58.5058 58.6957 55.5107 58.6957 55.5107C57.7895 55.539 56.7473 53.6417 56.7473 53.6417L55.7051 52.2857C54.5723 52.9974 51.7174 46.8122 51.7174 46.8122C49.6331 45.3297 47.9111 39.0853 47.9111 39.0853C46.6877 37.0638 47.0502 35.2219 47.0502 35.2219C48.2324 32.2121 50.2675 31.6427 50.2675 31.6427C51.2643 29.5458 50.0409 29.292 50.0409 29.292C49.4518 29.3819 49.1799 28.2588 49.1799 28.2588C48.319 25.788 48.9534 23.5867 48.9534 23.5867C49.1799 22.2839 50.8112 21.7156 50.8112 21.7156C53.6207 20.5027 55.6598 21.5652 55.6598 21.5652C58.3786 22.7781 58.1067 25.5185 58.1067 25.5185C58.1973 26.372 57.5176 26.4619 57.5176 26.4619C57.6083 29.921 56.5661 30.9093 56.5661 30.9093C56.5208 31.7628 55.4333 32.1222 55.4333 32.1222L56.5661 32.3468C57.8348 31.5831 60.0099 32.6164 60.0099 32.6164L61.0522 32.5265C61.9585 32.3018 65.221 32.1222 65.221 32.1222C65.5382 31.4034 67.9398 30.9991 67.9398 30.9991C68.8007 30.7745 71.3837 30.1456 71.3837 30.1456C72.7431 29.5167 73.3321 29.6065 73.3321 29.6065L74.6009 29.1124C74.8171 28.6896 75.6918 28.8946 75.6918 28.8946L86.8305 23.4375C86.7409 22.9591 87.1246 22.3862 87.771 22.0858C88.3662 21.8091 88.9985 21.8498 89.3398 22.1502L129.664 -0.972985C129.775 -1.03202 129.913 -0.99111 129.973 -0.881384C130.032 -0.771734 129.991 -0.634859 129.88 -0.575747L89.5708 22.5393C89.6785 23.0225 89.2934 23.6097 88.636 23.9152C88.0671 24.1797 87.4653 24.1534 87.1151 23.8885L76.9219 29.8208C77.0078 30.0549 76.8474 30.1904 76.8474 30.1904C76.6715 30.6302 76.0291 31.3496 76.0291 31.3496V31.6426C75.4222 32.6006 74.0567 32.0264 74.0567 32.0264H73.5585L73.196 32.6546C73.2866 33.3285 72.3878 33.2297 72.3878 33.2297H71.9725C71.4287 33.3802 71.0224 33.2297 71.0224 33.2297H70.5678C69.7975 34.057 67.2095 34.7385 67.2095 34.7385C65.8501 36.5354 61.9934 38.7724 61.9934 38.7724C61.9934 38.7724 62.1395 40.3927 61.0519 41.3361C61.0519 41.3361 61.0972 43.1757 62.1395 44.2088C62.1395 44.2088 63.0457 44.8815 62.9551 45.6452L63.1363 46.1837C65.6739 45.3751 73.06 45.9367 73.06 45.9367C80.718 45.0675 81.244 47.4613 81.244 47.4613C81.8784 48.6294 84.2072 54.995 84.2072 54.995C85.34 54.5525 85.8384 58.1777 85.8384 58.1777C86.3822 59.4355 87.2885 59.4355 87.2885 59.4355C88.0588 59.0312 88.6932 59.0761 88.6932 59.0761L90.0073 58.4921C91.0495 58.1327 91.6341 58.537 91.6341 58.537L91.8806 57.9979C92.6663 57.9081 92.4542 58.8066 92.4542 58.8066C94.2214 57.5038 98.1184 58.3574 98.1184 58.3574C99.2966 59.3007 92.4089 64.1505 92.4089 64.1505ZM82.3793 26.1215L76.1987 29.1496C76.3908 29.2596 76.5363 29.3629 76.6452 29.4587L82.3793 26.1215Z" fill="black"/>
<path d="M117.526 59.2747C107.299 64.7872 116.533 56.5185 103.923 63.1138C91.3126 69.709 102.83 59.5701 94.8871 64.0981C94.8871 64.0981 102.235 58.5857 99.951 57.995C99.951 57.995 102.235 53.4669 97.0715 56.9122C97.0715 56.9122 96.8729 54.7466 94.0928 56.5184C94.0928 56.5184 90.8669 58.125 92.2062 56.8138C92.2062 56.8138 97.568 51.3013 97.0715 53.6637C96.5751 56.0263 110.079 39.3903 107.199 49.8247C104.32 60.259 128.349 34.3701 116.434 47.5606C104.519 60.7512 123.384 48.0528 115.838 54.4512C108.292 60.8497 127.753 53.7622 117.526 59.2747ZM109.831 46.8716C110.351 46.8716 110.774 46.4529 110.774 45.9364C110.774 45.42 110.352 45.0012 109.831 45.0012C109.31 45.0012 108.887 45.4199 108.887 45.9364C108.887 46.4529 109.31 46.8716 109.831 46.8716ZM110.774 44.1157C110.774 44.3329 110.952 44.5091 111.171 44.5091C111.39 44.5091 111.568 44.333 111.568 44.1157C111.568 43.8983 111.39 43.7222 111.171 43.7222C110.952 43.7222 110.774 43.8983 110.774 44.1157ZM112.596 42.8356C112.944 42.8356 113.226 42.5558 113.226 42.2107C113.226 41.8656 112.944 41.5857 112.596 41.5857C112.248 41.5857 111.965 41.8656 111.965 42.2107C111.965 42.5558 112.248 42.8356 112.596 42.8356ZM115.242 42.9982C115.461 42.9982 115.639 42.8219 115.639 42.6044C115.639 42.3869 115.461 42.2106 115.242 42.2106C115.023 42.2106 114.845 42.3869 114.845 42.6044C114.845 42.8219 115.023 42.9982 115.242 42.9982ZM115.316 45.9365C115.577 45.9365 115.788 45.7271 115.788 45.4689C115.788 45.2107 115.577 45.0014 115.316 45.0014C115.056 45.0014 114.845 45.2107 114.845 45.4689C114.845 45.7271 115.056 45.9365 115.316 45.9365ZM106.225 41.5881C106.225 41.932 106.506 42.2107 106.853 42.2107C107.2 42.2107 107.481 41.9319 107.481 41.5881C107.481 41.2441 107.2 40.9654 106.853 40.9654C106.506 40.9654 106.225 41.2441 106.225 41.5881ZM109.831 38.6767C109.831 38.4184 109.619 38.2091 109.359 38.2091C109.099 38.2091 108.887 38.4185 108.887 38.6767C108.887 38.9349 109.099 39.1442 109.359 39.1442C109.619 39.1442 109.831 38.9349 109.831 38.6767ZM101.341 46.404C101.341 46.6623 101.552 46.8716 101.813 46.8716C102.073 46.8716 102.284 46.6622 102.284 46.404C102.284 46.1458 102.073 45.9365 101.813 45.9365C101.552 45.9365 101.341 46.1458 101.341 46.404ZM120.14 54.5692C119.902 54.5692 119.71 54.7598 119.71 54.9949C119.71 55.23 119.902 55.4206 120.14 55.4206C120.377 55.4206 120.569 55.23 120.569 54.9949C120.569 54.7598 120.377 54.5692 120.14 54.5692ZM120.537 51.8919C120.317 51.8919 120.14 52.0682 120.14 52.2857C120.14 52.5032 120.317 52.6794 120.537 52.6794C120.756 52.6794 120.934 52.5032 120.934 52.2857C120.934 52.0682 120.756 51.8919 120.537 51.8919ZM121.315 48.6435C120.885 48.6435 120.537 48.9889 120.537 49.4151C120.537 49.8412 120.885 50.1866 121.315 50.1866C121.745 50.1866 122.093 49.8412 122.093 49.4151C122.093 48.9889 121.745 48.6435 121.315 48.6435ZM122.211 37.8153C121.716 37.8153 121.315 38.2132 121.315 38.704C121.315 39.1948 121.716 39.5926 122.211 39.5926C122.706 39.5926 123.108 39.1948 123.108 38.704C123.108 38.2132 122.706 37.8153 122.211 37.8153ZM119.345 42.2107C119.692 42.2107 119.973 41.9319 119.973 41.5881C119.973 41.2441 119.692 40.9654 119.345 40.9654C118.999 40.9654 118.717 41.2442 118.717 41.5881C118.717 41.9319 118.998 42.2107 119.345 42.2107ZM91.114 55.5106C91.114 55.7954 91.3469 56.0263 91.6342 56.0263C91.9215 56.0263 92.1543 55.7954 92.1543 55.5106C92.1543 55.2258 91.9215 54.9949 91.6342 54.9949C91.3469 54.9949 91.114 55.2258 91.114 55.5106ZM92.1543 52.9636C92.1543 53.3381 92.4604 53.6416 92.8381 53.6416C93.2158 53.6416 93.522 53.3381 93.522 52.9636C93.522 52.5892 93.2158 52.2857 92.8381 52.2857C92.4604 52.2857 92.1543 52.5892 92.1543 52.9636ZM94.1921 49.9072C94.1921 50.179 94.4143 50.3994 94.6885 50.3994C94.9627 50.3994 95.1849 50.1791 95.1849 49.9072C95.1849 49.6354 94.9627 49.4151 94.6885 49.4151C94.4143 49.4151 94.1921 49.6353 94.1921 49.9072ZM92.4089 64.1505C84.4338 70.0375 84.5244 68.9143 84.5244 68.9143C83.6181 67.7913 84.7079 65.4163 84.7079 65.4163L83.7541 64.6017C83.1196 64.6017 83.0291 63.7032 83.0291 63.7032L82.7572 63.254C82.3494 63.3439 82.1681 62.5353 82.1681 62.5353L81.715 61.8165C81.126 61.8165 81.3072 61.0978 81.3072 61.0978L80.8087 60.4239C80.4916 60.4239 80.3103 61.3224 80.3103 61.3224L79.9477 60.963C79.9477 60.3341 80.3103 59.84 80.3103 59.84L79.4946 59.0314L78.5883 60.1544L77.9993 59.795C78.0446 58.7617 78.9509 58.043 78.9509 58.043C77.7727 56.9648 75.2805 52.742 75.2805 52.742C74.5555 53.6405 67.0787 54.995 67.0787 54.995C63.5896 58.5058 58.6957 55.5107 58.6957 55.5107C57.7895 55.539 56.7473 53.6417 56.7473 53.6417L55.7051 52.2857C54.5723 52.9974 51.7174 46.8122 51.7174 46.8122C49.6331 45.3297 47.9111 39.0853 47.9111 39.0853C46.6877 37.0638 47.0502 35.2219 47.0502 35.2219C48.2324 32.2121 50.2675 31.6427 50.2675 31.6427C51.2643 29.5458 50.0409 29.292 50.0409 29.292C49.4518 29.3819 49.1799 28.2588 49.1799 28.2588C48.319 25.788 48.9534 23.5867 48.9534 23.5867C49.1799 22.2839 50.8112 21.7156 50.8112 21.7156C53.6207 20.5027 55.6598 21.5652 55.6598 21.5652C58.3786 22.7781 58.1067 25.5185 58.1067 25.5185C58.1973 26.372 57.5176 26.4619 57.5176 26.4619C57.6083 29.921 56.5661 30.9093 56.5661 30.9093C56.5208 31.7628 55.4333 32.1222 55.4333 32.1222L56.5661 32.3468C57.8348 31.5831 60.0099 32.6164 60.0099 32.6164L61.0522 32.5265C61.9585 32.3018 65.221 32.1222 65.221 32.1222C65.5382 31.4034 67.9398 30.9991 67.9398 30.9991C68.8007 30.7745 71.3837 30.1456 71.3837 30.1456C72.7431 29.5167 73.3321 29.6065 73.3321 29.6065L74.6009 29.1124C74.8171 28.6896 75.6918 28.8946 75.6918 28.8946L86.8305 23.4375C86.7409 22.9591 87.1246 22.3862 87.771 22.0858C88.3662 21.8091 88.9985 21.8498 89.3398 22.1502L129.664 -0.972985C129.775 -1.03202 129.913 -0.99111 129.973 -0.881384C130.032 -0.771734 129.991 -0.634859 129.88 -0.575747L89.5708 22.5393C89.6785 23.0225 89.2934 23.6097 88.636 23.9152C88.0671 24.1797 87.4653 24.1534 87.1151 23.8885L76.9219 29.8208C77.0078 30.0549 76.8474 30.1904 76.8474 30.1904C76.6715 30.6302 76.0291 31.3496 76.0291 31.3496V31.6426C75.4222 32.6006 74.0567 32.0264 74.0567 32.0264H73.5585L73.196 32.6546C73.2866 33.3285 72.3878 33.2297 72.3878 33.2297H71.9725C71.4287 33.3802 71.0224 33.2297 71.0224 33.2297H70.5678C69.7975 34.057 67.2095 34.7385 67.2095 34.7385C65.8501 36.5354 61.9934 38.7724 61.9934 38.7724C61.9934 38.7724 62.1395 40.3927 61.0519 41.3361C61.0519 41.3361 61.0972 43.1757 62.1395 44.2088C62.1395 44.2088 63.0457 44.8815 62.9551 45.6452L63.1363 46.1837C65.6739 45.3751 73.06 45.9367 73.06 45.9367C80.718 45.0675 81.244 47.4613 81.244 47.4613C81.8784 48.6294 84.2072 54.995 84.2072 54.995C85.34 54.5525 85.8384 58.1777 85.8384 58.1777C86.3822 59.4355 87.2885 59.4355 87.2885 59.4355C88.0588 59.0312 88.6932 59.0761 88.6932 59.0761L90.0073 58.4921C91.0495 58.1327 91.6341 58.537 91.6341 58.537L91.8806 57.9979C92.6663 57.9081 92.4542 58.8066 92.4542 58.8066C94.2214 57.5038 98.1184 58.3574 98.1184 58.3574C99.2966 59.3007 92.4089 64.1505 92.4089 64.1505ZM82.3793 26.1215L76.1987 29.1496C76.3908 29.2596 76.5363 29.3629 76.6452 29.4587L82.3793 26.1215Z" stroke="black" stroke-width="2" stroke-miterlimit="10" stroke-linecap="round" stroke-linejoin="round"/>
</g>
<path d="M96.5 81C87.4018 81 80 88.4018 80 97.5C80 106.598 87.4018 114 96.5 114C105.598 114 113 106.598 113 97.5C113 88.4018 105.598 81 96.5 81ZM106.728 86.0168C109.228 88.2457 110.995 91.2758 111.628 94.7006C111.04 95.6446 109.852 96.621 109.194 97.1195L105.09 93.7456C105.008 91.8539 104.107 89.2901 103.692 88.1986L106.728 86.0168ZM102.528 88.2748C102.815 89.0017 103.889 91.8437 103.978 93.7562L99.2445 97.9049L93.233 96.0973C92.7917 94.8583 92.0567 91.8041 91.6863 90.1662C92.2301 89.5095 93.6666 87.961 96.2484 86.3484C97.2266 86.5411 100.695 87.2714 102.528 88.2748ZM85.9392 86.3243C87.6313 84.724 89.6826 83.5011 91.9611 82.7963C92.2914 82.7934 93.5249 82.7841 94.7936 82.7858C94.7936 82.7858 95.4512 84.6772 95.517 85.4918C92.7103 87.2687 91.2171 88.9631 90.7111 89.6009C90.3928 89.5732 86.4162 89.8844 85.6393 90.0724C85.5893 88.4338 85.845 86.8457 85.9392 86.3243ZM84.6205 87.7303C84.5316 88.6077 84.4772 89.7002 84.5667 90.7819C83.3092 92.6092 82.9615 95.6997 82.876 96.7737C82.5152 97.0598 81.7681 97.7046 81.1544 98.5777C81.1293 98.2213 81.1123 97.863 81.1123 97.5C81.1123 93.7935 82.4299 90.3895 84.6205 87.7303ZM86.212 108.931C83.8007 106.759 82.0821 103.836 81.4182 100.536C81.7163 99.4257 82.6391 98.4582 83.2277 97.9336C84.4577 99.7491 86.3266 100.905 87.1344 101.346C87.349 102.341 88.0756 105.509 88.9401 107.116L86.212 108.931ZM96.4513 108.593C93.2078 108.296 90.7804 107.226 90.1148 106.906C89.395 105.92 88.6107 102.865 88.2639 101.302C89.3386 99.7847 92.287 97.6812 92.9953 97.1872L98.7888 98.9291L100.371 104.998C99.3151 106.189 97.2268 107.95 96.4513 108.593ZM98.1962 112.792C97.5988 112.287 97.2152 110.719 97.0887 109.509C97.8205 108.906 100.052 107.036 101.215 105.721C101.643 105.768 102.463 105.843 103.384 105.843C104.815 105.843 105.915 105.66 106.677 105.302C106.877 105.978 107.145 107.144 107.168 108.574C104.783 110.872 101.662 112.41 98.1962 112.792ZM107.611 104.567C108.796 103.041 109.361 99.5729 109.539 98.249C109.951 97.953 110.991 97.172 111.832 96.2468C111.866 96.6606 111.888 97.0776 111.888 97.5C111.888 101.294 110.504 104.77 108.219 107.455C108.087 106.093 107.783 105.064 107.611 104.567Z" fill="black"/>
<path fill-rule="evenodd" clip-rule="evenodd" d="M54.119 6.1138L57.1503 9.62208L55.7537 10.8368L52.7259 7.32951L54.119 6.1138Z" fill="black"/>
<path fill-rule="evenodd" clip-rule="evenodd" d="M52.8141 8.85049L54.3455 10.6196L43.1298 20.9269L40.8915 18.3263L52.8141 8.85049Z" fill="black"/>
<path fill-rule="evenodd" clip-rule="evenodd" d="M39.8065 19.1888L12.6975 40.7397C11.7422 41.4996 10.4691 41.3946 9.64429 40.5154C9.63502 40.5085 9.62628 40.5008 9.61816 40.4926C8.94218 39.5927 9.03491 38.3622 9.9251 37.6337C9.95 37.6059 9.97433 37.5817 9.98907 37.5709L10.563 37.0711C10.569 37.0718 10.5751 37.0728 10.5811 37.074C11.4055 36.4072 11.7391 35.6254 11.7589 34.8612C11.7785 34.0967 11.477 33.3384 10.9688 32.7503C10.4609 32.1627 9.75506 31.748 8.99816 31.6626C8.24134 31.5756 7.42444 31.807 6.64994 32.5322L6.13982 32.9729C2.70824 35.7802 2.18529 40.9462 4.97781 44.3868L5.02566 44.4485C7.62822 47.4607 12.012 48.1065 15.3496 46.1861C14.848 44.5272 15.1124 42.6587 16.2451 41.1879C17.8344 39.1229 20.6097 38.5084 22.8824 39.5388L42.1248 21.8528L39.8101 19.1851L39.8065 19.1888ZM20.8404 40.8848C19.6647 40.8094 18.4775 41.3038 17.6974 42.3175C17.0853 43.1129 16.8485 44.0718 16.9515 44.9898L21.333 40.9633C21.1679 40.937 21.0059 40.8925 20.8404 40.8848Z" fill="black"/>
<path d="M21.2994 40.2487C23.6823 40.6286 25.2902 42.8722 24.9088 45.2647C24.5274 47.6569 22.3036 49.2761 19.9208 48.8962C17.5379 48.5163 15.9144 46.2837 16.2958 43.8915C16.6773 41.499 18.9166 39.8688 21.2994 40.2487Z" fill="black"/>
<path d="M21.6249 78.1105C21.5259 77.6483 21.3364 77.2103 21.0672 76.8217C20.798 76.4332 20.4545 76.1018 20.0565 75.8468C19.6585 75.5917 19.214 75.418 18.7485 75.3358C18.2831 75.2535 17.8059 75.2643 17.3446 75.3674C16.8833 75.4706 16.4471 75.6642 16.061 75.9369C15.6749 76.2096 15.3467 76.5561 15.0953 76.9564C14.8439 77.3567 14.6743 77.8028 14.5963 78.269C14.5183 78.7352 14.5334 79.2123 14.6408 79.6726L15.732 83.2896C17.1325 87.9321 18.3627 92.6896 19.3881 97.4266C20.3938 102.171 21.2204 107.015 21.8446 111.824L22.3417 115.634C22.4405 116.096 22.63 116.535 22.8992 116.923C23.1683 117.312 23.5118 117.643 23.9098 117.898C24.3078 118.154 24.7524 118.327 25.218 118.41C25.6835 118.492 26.1607 118.481 26.6221 118.378C27.0834 118.275 27.5198 118.081 27.9059 117.808C28.292 117.536 28.6202 117.189 28.8716 116.789C29.123 116.388 29.2926 115.942 29.3705 115.476C29.4484 115.009 29.4332 114.532 29.3257 114.072L28.2345 110.455C26.8342 105.813 25.604 101.056 24.5781 96.3164C23.5726 91.5728 22.7459 86.7288 22.122 81.9207L21.6249 78.1105ZM26.262 116.845C25.7523 116.957 25.2191 116.865 24.7762 116.589C24.3333 116.313 24.0159 115.875 23.8917 115.368L23.4055 111.622C22.7759 106.771 21.9424 101.886 20.9272 97.097C20.8316 96.6553 20.7254 96.2135 20.6264 95.7717L22.7702 95.3125C22.8608 95.7561 22.945 96.2026 23.0387 96.6447L23.0393 96.6477C24.0742 101.429 25.3149 106.227 26.7277 110.91L27.8027 114.464C27.9135 114.984 27.8135 115.527 27.5247 115.973C27.2358 116.42 26.7817 116.733 26.262 116.845ZM21.0363 94.2801C21.0027 93.9498 21.091 93.6186 21.2845 93.3489C21.5715 93.5157 21.7877 93.7816 21.8923 94.0967L21.0363 94.2801ZM20.561 82.1231C21.0005 85.5094 21.5452 88.9108 22.1757 92.2851C22.0098 92.1582 21.8191 92.0678 21.616 92.0195C21.4128 91.9713 21.2018 91.9664 20.9966 92.0052C20.767 92.0639 20.5541 92.1749 20.3744 92.3295C20.1947 92.4841 20.0531 92.678 19.9607 92.8963C19.1457 89.5163 18.2379 86.1464 17.2388 82.8347L16.1638 79.2803C16.0541 78.7655 16.151 78.2281 16.4337 77.784C16.7164 77.34 17.1622 77.0247 17.6751 76.9062C18.188 76.7877 18.7269 76.8753 19.1758 77.1504C19.6246 77.4254 19.9475 77.8657 20.0748 78.3765L20.561 82.1231Z" fill="black"/>
<path d="M22.6543 98.6905L22.1159 98.8058C21.9118 98.8495 21.7334 98.9725 21.62 99.1478C21.5066 99.323 21.4674 99.5361 21.5111 99.7402C21.5549 99.9443 21.6779 100.123 21.8531 100.236C22.0284 100.35 22.2415 100.389 22.4456 100.345L22.984 100.23C23.1881 100.186 23.3665 100.063 23.4799 99.8876C23.5933 99.7124 23.6325 99.4993 23.5888 99.2952C23.545 99.0911 23.422 98.9127 23.2468 98.7993C23.0715 98.6859 22.8584 98.6467 22.6543 98.6905Z" fill="black"/>
<path d="M19.518 114.853L18.4039 115.092L12.271 86.4629L12.5724 86.3984C12.6735 86.3767 12.7693 86.3354 12.8544 86.2768C12.9395 86.2181 13.0122 86.1432 13.0684 86.0564C13.1245 85.9697 13.163 85.8727 13.1817 85.771C13.2004 85.6694 13.1988 85.565 13.1771 85.4639L11.9499 79.735C11.8445 79.2478 11.5501 78.8223 11.1313 78.5519C10.7125 78.2815 10.2036 78.1882 9.71614 78.2927C9.22871 78.3971 8.80261 78.6906 8.53135 79.1088C8.26009 79.5271 8.16582 80.0358 8.26924 80.5235L9.49648 86.2524C9.51811 86.3535 9.55943 86.4493 9.6181 86.5344C9.67677 86.6195 9.75163 86.6922 9.83841 86.7484C9.92518 86.8045 10.0222 86.843 10.1238 86.8617C10.2255 86.8803 10.3298 86.8788 10.4309 86.8571L10.7319 86.7926L16.8647 115.422L15.6702 115.678C15.4661 115.721 15.2877 115.844 15.1743 116.019C15.0609 116.195 15.0217 116.408 15.0654 116.612C15.1092 116.816 15.2322 116.994 15.4074 117.108C15.5827 117.221 15.7958 117.26 15.9999 117.217L17.1944 116.961L17.537 118.56C17.5808 118.764 17.7038 118.943 17.879 119.056C18.0542 119.169 18.2674 119.208 18.4715 119.165C18.6756 119.121 18.8539 118.998 18.9673 118.823C19.0807 118.648 19.1199 118.434 19.0762 118.23L18.7336 116.631L19.8477 116.392C20.0518 116.349 20.2302 116.226 20.3436 116.05C20.457 115.875 20.4962 115.662 20.4524 115.458C20.4087 115.254 20.2857 115.075 20.1105 114.962C19.9352 114.849 19.7221 114.81 19.518 114.853ZM9.80839 80.1937C9.79173 80.114 9.80732 80.031 9.85173 79.9627C9.89613 79.8945 9.96576 79.8466 10.0454 79.8296C10.125 79.8125 10.2081 79.8277 10.2766 79.8717C10.345 79.9158 10.3933 79.9852 10.4107 80.0647L11.4731 85.0241L10.8708 85.1531L9.80839 80.1937Z" fill="black"/>
<path d="M30.177 76.2785C30.078 75.8163 29.8885 75.3782 29.6193 74.9897C29.3501 74.6012 29.0066 74.2698 28.6086 74.0147C28.2106 73.7597 27.7661 73.586 27.3006 73.5038C26.8352 73.4215 26.358 73.4323 25.8967 73.5354C25.4354 73.6386 24.9992 73.8321 24.6131 74.1049C24.227 74.3776 23.8988 74.7241 23.6474 75.1244C23.396 75.5247 23.2264 75.9708 23.1484 76.437C23.0704 76.9032 23.0855 77.3803 23.1929 77.8406L24.2841 81.4575C25.6844 86.0993 26.9147 90.8569 27.9405 95.5961C28.946 100.34 29.7727 105.184 30.3967 109.992L30.8938 113.802C30.9926 114.264 31.1821 114.703 31.4513 115.091C31.7204 115.48 32.0639 115.811 32.4619 116.066C32.8599 116.322 33.3045 116.495 33.7701 116.578C34.2356 116.66 34.7128 116.649 35.1742 116.546C35.6355 116.443 36.0719 116.249 36.458 115.976C36.8441 115.704 37.1723 115.357 37.4237 114.957C37.6751 114.556 37.8447 114.11 37.9226 113.644C38.0005 113.177 37.9853 112.7 37.8778 112.24L36.7866 108.623C35.3861 103.981 34.1559 99.2229 33.1305 94.4859C32.1248 89.7416 31.2982 84.8975 30.674 80.0887L30.177 76.2785ZM34.8137 115.013C34.304 115.125 33.7709 115.033 33.3281 114.757C32.8853 114.481 32.5679 114.043 32.4438 113.536L31.9576 109.79C31.328 104.939 30.4945 100.054 29.48 95.2679L29.4793 95.2649C29.3837 94.8233 29.2775 94.3815 29.1785 93.9397L31.3223 93.4804C31.4132 93.9251 31.4975 94.3726 31.5914 94.8156C32.6263 99.597 33.867 104.395 35.2798 109.078L36.3548 112.632C36.4656 113.152 36.3656 113.695 36.0766 114.141C35.7877 114.588 35.3335 114.901 34.8137 115.013ZM29.4813 92.471C29.4477 92.1407 29.536 91.8096 29.7295 91.5398C30.0165 91.7066 30.2327 91.9726 30.3373 92.2876L29.4813 92.471ZM29.1131 80.2911C29.5583 83.721 30.1105 87.1667 30.7517 90.5847C30.578 90.4234 30.3694 90.3045 30.1421 90.2371C29.9149 90.1696 29.6752 90.1556 29.4416 90.1961C29.2386 90.2448 29.0481 90.3357 28.8825 90.4629C28.7169 90.5901 28.58 90.7508 28.4807 90.9344C27.6736 87.598 26.7771 84.2719 25.791 81.0027L24.7159 77.4483C24.6062 76.9335 24.7031 76.3961 24.9858 75.952C25.2685 75.508 25.7143 75.1927 26.2272 75.0742C26.7401 74.9557 27.279 75.0434 27.7279 75.3184C28.1768 75.5934 28.4996 76.0337 28.6269 76.5445L29.1131 80.2911Z" fill="black"/>
<path d="M31.2064 96.8584L30.6679 96.9738C30.4638 97.0175 30.2855 97.1405 30.1721 97.3158C30.0587 97.491 30.0195 97.7041 30.0632 97.9082C30.107 98.1123 30.23 98.2907 30.4052 98.4041C30.5804 98.5175 30.7936 98.5567 30.9977 98.5129L31.5361 98.3976C31.7402 98.3539 31.9186 98.2309 32.032 98.0556C32.1454 97.8804 32.1846 97.6673 32.1409 97.4632C32.0971 97.2591 31.9741 97.0807 31.7989 96.9673C31.6236 96.8539 31.4105 96.8147 31.2064 96.8584Z" fill="black"/>
<path d="M43.9978 109.609L42.8032 109.865L36.6704 81.2362L36.9714 81.1717C37.0725 81.1501 37.1683 81.1087 37.2534 81.0501C37.3385 80.9914 37.4112 80.9165 37.4673 80.8298C37.5235 80.743 37.562 80.646 37.5807 80.5443C37.5993 80.4427 37.5978 80.3383 37.5761 80.2373L36.3489 74.5083C36.2434 74.0211 35.949 73.5956 35.5303 73.3252C35.1115 73.0548 34.6025 72.9616 34.1151 73.066C33.6277 73.1704 33.2016 73.4639 32.9303 73.8821C32.6591 74.3004 32.5648 74.8091 32.6682 75.2968L33.8955 81.0257C33.9171 81.1268 33.9584 81.2226 34.0171 81.3077C34.0757 81.3928 34.1506 81.4655 34.2374 81.5217C34.3242 81.5778 34.4211 81.6163 34.5228 81.635C34.6245 81.6537 34.7288 81.6521 34.8299 81.6304L35.1312 81.5659L41.2641 110.195L40.1499 110.434C39.9458 110.477 39.7674 110.6 39.654 110.775C39.5406 110.951 39.5015 111.164 39.5452 111.368C39.5889 111.572 39.7119 111.75 39.8872 111.864C40.0624 111.977 40.2755 112.016 40.4796 111.973L41.5938 111.734L41.9364 113.333C41.9801 113.537 42.1031 113.716 42.2783 113.829C42.4536 113.943 42.6667 113.982 42.8708 113.938C43.0749 113.894 43.2533 113.771 43.3667 113.596C43.4801 113.421 43.5192 113.208 43.4755 113.004L43.1329 111.404L44.3275 111.148C44.5316 111.105 44.71 110.982 44.8234 110.806C44.9368 110.631 44.9759 110.418 44.9322 110.214C44.8885 110.01 44.7655 109.831 44.5902 109.718C44.415 109.605 44.2019 109.566 43.9978 109.609ZM34.2074 74.9671C34.1907 74.8874 34.2063 74.8043 34.2507 74.7361C34.2951 74.6678 34.3647 74.6199 34.4443 74.6029C34.524 74.5858 34.6071 74.601 34.6755 74.6451C34.744 74.6891 34.7923 74.7585 34.8097 74.838L35.8721 79.7974L35.2697 79.9264L34.2074 74.9671Z" fill="black"/>
<path d="M58.2808 75.7104C60.0438 74.5996 61.917 73.6743 63.8705 72.949C61.6095 71.8735 59.082 71.487 56.6029 71.8377C56.3885 71.8718 56.1832 71.9487 55.9992 72.0639C55.8152 72.179 55.6563 72.33 55.5319 72.5079C54.1324 74.5843 53.375 77.0267 53.3539 79.5306C54.8601 78.0907 56.5111 76.8105 58.2808 75.7104Z" fill="black"/>
<path d="M70.923 97.0965C71.1375 97.0628 71.3429 96.986 71.5269 96.8708C71.711 96.7557 71.8699 96.6045 71.994 96.4264C73.3338 94.4463 74.0839 92.1267 74.1573 89.7371C72.6858 91.1178 71.0824 92.3507 69.3701 93.4182C67.6625 94.4938 65.8534 95.3992 63.9689 96.1214C66.1481 97.0974 68.5594 97.4355 70.923 97.0965Z" fill="black"/>
<path d="M73.9802 86.4766C73.9525 86.2936 73.9419 86.1121 73.9073 85.9281C73.4735 83.7093 72.6311 81.5905 71.4228 79.6796C70.28 77.8425 68.8232 76.2205 67.1188 74.8877C66.9689 74.7727 66.81 74.6785 66.6602 74.5696C64.1484 75.2734 61.7494 76.3305 59.535 77.7094C57.3262 79.0959 55.3256 80.7893 53.5932 82.7386C53.6245 82.9242 53.64 83.1074 53.6784 83.293C54.1322 85.4087 54.9543 87.4282 56.1074 89.2593C57.2978 91.1815 58.8353 92.8655 60.6414 94.2256C60.7929 94.3368 60.9506 94.4257 61.1019 94.5309C63.5734 93.8238 65.9346 92.7766 68.1178 91.4195C70.2914 90.0512 72.2644 88.3877 73.9802 86.4766ZM68.9325 87.1213C68.8456 86.5467 68.7163 85.9793 68.5456 85.4239L67.47 86.0974C67.3593 86.1498 67.2332 86.1597 67.1157 86.1253C66.9982 86.0909 66.8973 86.0146 66.8324 85.9108C66.7674 85.807 66.7427 85.683 66.7631 85.5622C66.7835 85.4414 66.8475 85.3324 66.943 85.2557L68.2189 84.457C67.9895 83.8786 67.7176 83.3179 67.4055 82.7796L65.9583 83.6845C65.8476 83.7369 65.7215 83.7468 65.604 83.7124C65.4865 83.678 65.3856 83.6017 65.3206 83.4979C65.2556 83.3941 65.231 83.2701 65.2514 83.1493C65.2718 83.0286 65.3358 82.9195 65.4313 82.8428L66.8785 81.9379C66.5313 81.4213 66.1464 80.9312 65.7267 80.4715L64.4476 81.2718C64.3369 81.3242 64.2108 81.3341 64.0933 81.2997C63.9757 81.2653 63.8749 81.189 63.8099 81.0852C63.7449 80.9814 63.7203 80.8573 63.7407 80.7366C63.7611 80.6158 63.8251 80.5068 63.9205 80.43L64.9982 79.7558C64.6279 79.4109 64.2364 79.0896 63.8258 78.7938C63.7634 78.7603 63.7087 78.714 63.6656 78.6578C63.6224 78.6016 63.5917 78.5368 63.5754 78.4679C63.5592 78.3989 63.5577 78.3273 63.5713 78.2577C63.5848 78.1881 63.613 78.1223 63.6539 78.0644C63.6948 78.0066 63.7476 77.9581 63.8086 77.9221C63.8697 77.8862 63.9377 77.8637 64.0082 77.8561C64.0786 77.8484 64.1499 77.8559 64.2173 77.8778C64.2846 77.8998 64.3465 77.9359 64.3989 77.9836C64.9182 78.3562 65.4095 78.7664 65.8689 79.2108L67.2648 78.3317C67.3198 78.2875 67.3836 78.2554 67.4519 78.2376C67.5202 78.2198 67.5916 78.2167 67.6612 78.2285C67.7308 78.2402 67.7971 78.2666 67.8558 78.3058C67.9145 78.3451 67.9643 78.3963 68.0017 78.4561C68.0392 78.516 68.0636 78.5831 68.0732 78.653C68.0829 78.723 68.0776 78.7942 68.0578 78.8619C68.038 78.9297 68.004 78.9925 67.9582 79.0462C67.9123 79.0999 67.8556 79.1432 67.7918 79.1734L66.5783 79.9328C66.9928 80.3965 67.375 80.8881 67.7222 81.4041L68.7755 80.7445C68.8305 80.7002 68.8943 80.6682 68.9626 80.6504C69.031 80.6326 69.1023 80.6295 69.1719 80.6412C69.2415 80.653 69.3079 80.6793 69.3666 80.7186C69.4253 80.7578 69.475 80.809 69.5125 80.8689C69.5499 80.9287 69.5743 80.9958 69.584 81.0658C69.5936 81.1357 69.5884 81.2069 69.5685 81.2747C69.5487 81.3424 69.5148 81.4052 69.4689 81.4589C69.4231 81.5126 69.3664 81.556 69.3025 81.5862L68.2482 82.2457C68.5602 82.7841 68.8348 83.3433 69.0703 83.9192L70.2859 83.1592C70.341 83.1149 70.4048 83.0829 70.4731 83.0651C70.5414 83.0473 70.6127 83.0442 70.6823 83.0559C70.752 83.0677 70.8183 83.094 70.877 83.1333C70.9357 83.1725 70.9854 83.2238 71.0229 83.2836C71.0604 83.3434 71.0847 83.4105 71.0944 83.4805C71.1041 83.5504 71.0988 83.6216 71.079 83.6894C71.0591 83.7571 71.0252 83.8199 70.9793 83.8736C70.9335 83.9273 70.8768 83.9707 70.813 84.0009L69.4158 84.8747C69.6413 85.5601 69.8083 86.2633 69.915 86.9769C69.9173 87.0989 69.8749 87.2176 69.7958 87.3106C69.7166 87.4036 69.6062 87.4643 69.4853 87.4815C69.3644 87.4986 69.2414 87.4709 69.1395 87.4037C69.0376 87.3364 68.9639 87.2341 68.9322 87.1162L68.9325 87.1213Z" fill="black"/>
</g>
<defs>
<filter id="filter0_d_204_42" x="30" y="-14" width="117" height="104" filterUnits="userSpaceOnUse" color-interpolation-filters="sRGB">
<feFlood flood-opacity="0" result="BackgroundImageFix"/>
<feColorMatrix in="SourceAlpha" type="matrix" values="0 0 0 0 0 0 0 0 0 0 0 0 0 0 0 0 0 0 127 0" result="hardAlpha"/>
<feOffset dy="4"/>
<feGaussianBlur stdDeviation="8"/>
<feComposite in2="hardAlpha" operator="out"/>
<feColorMatrix type="matrix" values="0 0 0 0 0 0 0 0 0 0 0 0 0 0 0 0 0 0 0.25 0"/>
<feBlend mode="normal" in2="BackgroundImageFix" result="effect1_dropShadow_204_42"/>
<feBlend mode="normal" in="SourceGraphic" in2="effect1_dropShadow_204_42" result="shape"/>
</filter>
<clipPath id="clip0_204_42">
<rect width="128" height="128" rx="64" fill="white"/>
</clipPath>
</defs>
</svg>
